<svg width="228" height="38" viewBox="0 0 228 38" fill="none" xmlns="http://www.w3.org/2000/svg">
  <path d="M168.857 7.82969C168.857 7.39381 168.684 6.97563 168.377 6.66648C168.07 6.35734 167.652 6.18233 167.217 6.17969H164.927C164.71 6.17968 164.496 6.22243 164.297 6.30548C164.097 6.38852 163.916 6.51021 163.763 6.66356C163.611 6.81691 163.49 6.99889 163.409 7.19902C163.327 7.39915 163.285 7.61348 163.287 7.82969V24.4797C163.199 25.4805 163.387 26.4862 163.832 27.3872C164.276 28.2882 164.959 29.05 165.807 29.5897C167.377 30.5897 169.187 31.0697 172.567 31.0697H174.407C174.842 31.0697 175.259 30.8969 175.566 30.5893C175.874 30.2818 176.047 29.8646 176.047 29.4297V27.6497H174.667C173.667 27.6497 171.567 27.6497 170.337 26.7697C168.717 25.6997 168.857 23.7697 168.857 22.4297V7.82969Z" fill="#ED1B36"/>
  <path d="M159.384 29.2028V27.4028H147.164C145.164 27.4028 142.814 27.1728 142.164 24.9728C141.943 24.0524 141.833 23.1092 141.834 22.1628H156.364C157.323 22.233 158.277 21.9601 159.054 21.3928C159.477 21.0071 159.804 20.5277 160.009 19.9928C160.214 19.458 160.291 18.8827 160.234 18.3128C160.234 15.7328 159.624 13.1928 156.694 11.6928C154.384 10.5028 151.364 10.3828 148.434 10.3828C146.074 10.3828 141.834 10.3828 139.094 12.3128C136.354 14.2428 136.094 17.0428 136.094 20.8528C136.094 23.5528 136.234 26.3628 137.884 28.2828C139.954 30.6728 142.984 30.8628 145.524 30.8628H157.744C157.961 30.8628 158.176 30.8198 158.376 30.7361C158.576 30.6524 158.758 30.5298 158.911 30.3754C159.063 30.221 159.183 30.0378 159.265 29.8366C159.346 29.6353 159.386 29.4199 159.384 29.2028ZM154.474 17.5028C154.474 18.0428 154.334 18.7028 153.244 18.7028H145.394C143.394 18.7028 141.784 19.6328 141.784 20.7828V18.7028C141.784 17.3528 141.784 16.2328 142.914 15.1928C144.424 13.8328 146.684 13.8328 148.154 13.8328C149.781 13.7057 151.413 14.0237 152.874 14.7528C153.352 15.0378 153.75 15.4397 154.029 15.9208C154.309 16.4019 154.462 16.9463 154.474 17.5028Z" fill="#ED1B36"/>
  <path d="M83.165 29.3491V27.5491H70.945C68.945 27.5491 66.605 27.3191 65.945 25.1291C65.7262 24.2084 65.6155 23.2654 65.615 22.3191H80.145C81.1071 22.3839 82.0618 22.1116 82.845 21.5491C83.2659 21.1614 83.5914 20.6817 83.7961 20.1474C84.0008 19.6131 84.0791 19.0387 84.025 18.4691C84.025 15.8891 83.405 13.3491 80.485 11.8491C78.165 10.6491 75.145 10.5391 72.225 10.5391C69.865 10.5391 65.615 10.5391 62.875 12.4591C60.135 14.3791 59.875 17.1991 59.875 21.0091C59.875 23.6991 60.015 26.5091 61.665 28.4391C63.745 30.8191 66.765 31.0191 69.315 31.0191H81.555C81.9891 31.0086 82.4016 30.8274 82.703 30.5147C83.0044 30.2021 83.1704 29.7833 83.165 29.3491ZM78.255 17.6591C78.255 18.1991 78.115 18.8491 77.035 18.8491H69.175C67.175 18.8491 65.565 19.7791 65.565 20.9291V18.8291C65.615 17.4791 65.565 16.3691 66.695 15.3291C68.205 13.9391 70.475 13.9791 71.935 13.9791C73.5636 13.855 75.1952 14.1765 76.655 14.9091C77.1331 15.194 77.5308 15.596 77.8108 16.0771C78.0907 16.5582 78.2435 17.1026 78.255 17.6591Z" fill="#ED1B36"/>
  <path d="M179.078 26.8266V29.1366C179.078 30.0566 180.198 30.7966 181.568 30.7966H186.888C185.368 30.7966 184.758 29.6766 184.758 27.9766V26.8266C184.758 25.9066 183.638 25.1566 182.268 25.1566H181.568C180.188 25.1366 179.078 25.8866 179.078 26.8266Z" fill="#ED1B36"/>
  <path d="M58.6838 29.057C58.618 29.6862 58.3074 30.2643 57.8191 30.6666C57.3308 31.0688 56.7039 31.2629 56.0738 31.207H55.2938C52.9484 31.3497 50.6108 30.8225 48.5537 29.687C47.0071 28.6537 46.2337 26.9537 46.2337 24.587V14.387H42.8438V10.937H46.2337V6.59699C46.2995 5.96778 46.6101 5.38965 47.0984 4.98741C47.5867 4.58517 48.2136 4.39106 48.8438 4.44699H49.0438C49.675 4.39093 50.3031 4.58474 50.793 4.98676C51.2829 5.38878 51.5955 5.96694 51.6637 6.59699V10.937H58.6637V12.237C58.598 12.8662 58.2874 13.4443 57.7991 13.8466C57.3108 14.2488 56.6839 14.4429 56.0537 14.387H51.6438V23.677C51.5835 24.2784 51.6808 24.8852 51.9263 25.4375C52.1718 25.9899 52.5569 26.4687 53.0438 26.827C54.3497 27.5472 55.8362 27.8736 57.3238 27.767H58.6637L58.6838 29.057Z" fill="#ED1B36"/>
  <path d="M87.411 31.2109V29.2109C87.4492 28.7907 87.6509 28.4023 87.9725 28.1293C88.2942 27.8562 88.7102 27.7204 89.131 27.7509H101.021C101.586 27.7685 102.143 27.6076 102.611 27.2909C102.83 27.1318 103.005 26.9201 103.12 26.6754C103.236 26.4308 103.288 26.161 103.271 25.8909C103.279 25.517 103.178 25.1487 102.981 24.8309C102.765 24.4931 102.446 24.2336 102.071 24.0909C101.716 23.9185 101.349 23.7747 100.971 23.6609C100.671 23.5709 100.191 23.4609 99.521 23.3209L98.201 23.0109L93.551 21.9409C91.051 21.3609 89.351 20.6176 88.451 19.7109C87.9901 19.204 87.6343 18.6106 87.4043 17.9652C87.1743 17.3198 87.0746 16.6351 87.111 15.9509C87.0468 15.2018 87.1621 14.4482 87.4473 13.7526C87.7325 13.057 88.1794 12.4393 88.751 11.9509C89.841 11.1309 91.611 10.7109 94.051 10.7109H107.691V12.7109C107.655 13.1295 107.455 13.5169 107.135 13.7886C106.815 14.0603 106.4 14.1942 105.981 14.1609H94.871C94.18 14.1026 93.4865 14.2413 92.871 14.5609C92.656 14.7312 92.4886 14.9542 92.3852 15.2083C92.2818 15.4624 92.2459 15.7389 92.281 16.0109C92.2779 16.2762 92.3358 16.5386 92.4502 16.7778C92.5647 17.0171 92.7326 17.2269 92.941 17.3909C93.3176 17.7204 93.7515 17.978 94.221 18.1509C94.641 18.2776 95.261 18.4476 96.081 18.6609L101.291 19.8909C102.341 20.1509 103.161 20.3709 103.751 20.5409C104.435 20.7338 105.104 20.9779 105.751 21.2709C106.379 21.5144 106.953 21.8779 107.441 22.3409C107.866 22.7812 108.205 23.2966 108.441 23.8609C108.73 24.5293 108.87 25.2528 108.851 25.9809C108.9 26.6876 108.809 27.3969 108.582 28.0681C108.356 28.7392 107.998 29.3588 107.531 29.8909C106.651 30.7809 105.111 31.2209 102.911 31.2209L87.411 31.2109Z" fill="#ED1B36"/>
  <path d="M111.52 31.2109V29.2109C111.559 28.7926 111.759 28.4058 112.078 28.133C112.398 27.8602 112.811 27.7231 113.23 27.7509H125.13C125.695 27.7658 126.251 27.6051 126.72 27.2909C126.936 27.1295 127.108 26.9171 127.222 26.6728C127.335 26.4284 127.386 26.1598 127.37 25.8909C127.388 25.5035 127.283 25.1204 127.069 24.7969C126.855 24.4734 126.544 24.2262 126.18 24.0909C125.822 23.9199 125.451 23.7762 125.07 23.6609C124.78 23.5709 124.29 23.4609 123.63 23.3209C122.97 23.1809 122.52 23.0709 122.31 23.0109L117.65 21.9409C115.16 21.3609 113.45 20.6209 112.55 19.7109C112.091 19.2035 111.737 18.6098 111.508 17.9643C111.28 17.3189 111.182 16.6345 111.22 15.9509C111.156 15.2018 111.271 14.4482 111.557 13.7526C111.842 13.057 112.289 12.4393 112.86 11.9509C113.95 11.1309 115.72 10.7109 118.15 10.7109H131.8V12.7109C131.762 13.1285 131.562 13.5144 131.242 13.7855C130.922 14.0567 130.509 14.1915 130.09 14.1609H118.97C118.279 14.1048 117.587 14.2434 116.97 14.5609C116.757 14.7323 116.592 14.9558 116.49 15.2098C116.389 15.4638 116.354 15.7398 116.39 16.0109C116.385 16.2765 116.442 16.5397 116.556 16.7794C116.671 17.019 116.84 17.2285 117.05 17.3909C117.426 17.7221 117.86 17.9799 118.33 18.1509C118.737 18.2776 119.357 18.4476 120.19 18.6609L125.39 19.8909C126.45 20.1509 127.27 20.3709 127.85 20.5409C128.534 20.7338 129.203 20.9779 129.85 21.2709C130.48 21.5171 131.056 21.8801 131.55 22.3409C131.972 22.7837 132.311 23.2985 132.55 23.8609C132.834 24.5312 132.973 25.2534 132.96 25.9809C133.01 26.6876 132.918 27.3969 132.692 28.0681C132.465 28.7392 132.108 29.3588 131.64 29.8909C130.76 30.7809 129.22 31.2209 127.02 31.2209L111.52 31.2109Z" fill="#ED1B36"/>
  <path d="M189.109 30.9468L199.589 6.55676C199.925 5.61336 200.521 4.78458 201.309 4.16676C202.18 3.72334 203.143 3.49219 204.119 3.49219C205.096 3.49219 206.059 3.72334 206.929 4.16676C207.75 4.77524 208.381 5.60398 208.749 6.55676L219.229 30.9468H215.229C214.789 30.9474 214.358 30.819 213.99 30.5772C213.622 30.3355 213.334 29.9911 213.159 29.5868L210.859 24.0868H197.449L195.189 29.5768C195.019 29.9845 194.731 30.3325 194.363 30.5764C193.994 30.8203 193.561 30.9492 193.119 30.9468H189.109ZM203.349 9.38676L198.799 20.3868H209.459L204.929 9.38676C204.639 8.63676 204.389 8.59676 204.149 8.59676C203.909 8.59676 203.639 8.63676 203.349 9.38676Z" fill="#324853"/>
  <path d="M227.847 30.83H224.617C224.01 30.8544 223.418 30.6379 222.97 30.2276C222.522 29.8173 222.255 29.2466 222.227 28.64V3.5H224.947C225.343 3.51285 225.733 3.60427 226.094 3.76897C226.456 3.93368 226.78 4.16838 227.05 4.4595C227.32 4.75062 227.529 5.09237 227.666 5.46494C227.803 5.83752 227.864 6.23352 227.847 6.63V30.83Z" fill="#324853"/>
  <path d="M15.5481 22.647V30.5367V30.7867H15.7981H22.5969H22.8469V30.5367V29.4867V29.2367H22.5969H17.4465V21.4338V21.1838H17.1965H15.2901C15.1331 20.8582 14.8692 20.5856 14.5374 20.3997C14.1506 20.183 13.6922 20.095 13.2425 20.1477C12.7929 20.2005 12.3736 20.3916 12.0615 20.6941C11.7486 20.9972 11.5631 21.3939 11.5479 21.8151C11.5327 22.2366 11.6894 22.6439 11.981 22.965C12.2719 23.2852 12.6777 23.4994 13.1231 23.5769C13.5684 23.6545 14.0317 23.5917 14.4323 23.3972C14.78 23.2284 15.0647 22.9676 15.2439 22.647H15.5481ZM13.4971 22.0602C13.4416 22.0602 13.3896 22.0457 13.3478 22.0213C13.3062 21.997 13.2792 21.9657 13.2649 21.9354C13.2509 21.9059 13.248 21.8757 13.2545 21.8471C13.2612 21.818 13.2786 21.7861 13.3111 21.7577C13.3439 21.729 13.3894 21.7065 13.4432 21.6971C13.4971 21.6877 13.5526 21.6928 13.6017 21.7105C13.6508 21.7283 13.6875 21.7566 13.7108 21.787C13.7336 21.817 13.743 21.848 13.743 21.8764C13.743 21.9135 13.7264 21.9572 13.6832 21.995C13.6388 22.0338 13.5723 22.0602 13.4971 22.0602Z" fill="#EC1E37" stroke="#EC1E37" stroke-width="0.5"/>
  <path d="M13.0652 12.6533H26.7081V15.1749H21.5562H21.3062V15.4249V30.5421V30.7921H21.5562H22.7907H23.0407V30.5421V16.7383H28H28.25V16.4883V11.2697V11.0197H28H13.0652C12.9125 10.69 12.6692 10.4128 12.3628 10.2276C12.0054 10.0116 11.5865 9.9356 11.1799 10.0151C10.7736 10.0946 10.4099 10.3234 10.15 10.6569C9.89047 10.99 9.75 11.4075 9.75 11.8365C9.75 12.2655 9.89047 12.683 10.15 13.0161C10.4099 13.3496 10.7736 13.5784 11.1799 13.6579C11.5865 13.7374 12.0054 13.6614 12.3628 13.4454C12.6692 13.2602 12.9125 12.983 13.0652 12.6533ZM11.4922 12.055C11.459 12.055 11.425 12.0445 11.3944 12.0227C11.3636 12.0006 11.3372 11.9675 11.3209 11.9255C11.3047 11.8835 11.3002 11.8364 11.3087 11.7908C11.3171 11.7452 11.3377 11.7055 11.3653 11.6759C11.3928 11.6465 11.4257 11.6286 11.4589 11.6216C11.4918 11.6146 11.5262 11.618 11.5584 11.6323C11.5909 11.6467 11.6214 11.6723 11.6441 11.7087C11.6669 11.7451 11.68 11.7897 11.68 11.8365C11.68 11.8997 11.6564 11.9572 11.6191 11.9971C11.5824 12.0364 11.5363 12.055 11.4922 12.055Z" fill="#324752" stroke="#324752" stroke-width="0.5"/>
  <path d="M11.6034 2.77468L11.5135 2.49631L11.2525 2.62857C9.39859 3.5682 7.70077 4.80194 6.22148 6.28421L6.05045 6.45558L6.21626 6.63201L7.16183 7.63815L7.33826 7.82589L7.52061 7.6439C8.81993 6.3471 10.301 5.25793 11.9145 4.41258L12.1011 4.31478L12.0363 4.11426L11.6034 2.77468Z" fill="#324752" stroke="#324752" stroke-width="0.5"/>
  <path d="M30.3555 32.5339L30.5098 32.7335L30.708 32.5774C32.2056 31.3975 33.4869 30.0182 34.505 28.4884L34.6604 28.2549L34.4107 28.1272L33.2677 27.543L33.0695 27.4417L32.946 27.6269C32.0568 28.9596 30.9426 30.1669 29.6408 31.2071L29.4486 31.3607L29.5991 31.5553L30.3555 32.5339Z" fill="#EC1E37" stroke="#EC1E37" stroke-width="0.5"/>
  <path d="M27.5651 33.1748L27.4918 33.0569H27.3529H27.3323H27.2609L27.2003 33.0946C24.335 34.8772 20.994 35.7144 17.6389 35.4909C14.2838 35.2674 11.0797 33.9942 8.46957 31.8468C5.8594 29.6994 3.97201 26.7836 3.06885 23.5023C2.18321 20.2846 2.28699 16.8717 3.36374 13.7177C3.83947 13.7493 4.31497 13.6308 4.72351 13.3762C5.19215 13.0842 5.54143 12.6324 5.70903 12.1033C5.8766 11.5742 5.85171 11.0019 5.63876 10.4896C5.42579 9.97734 5.03848 9.55833 4.5461 9.30906C4.05364 9.05975 3.48904 8.99696 2.95458 9.13231C2.42016 9.26765 1.95193 9.59193 1.63405 10.0457C1.31622 10.4993 1.16944 11.0527 1.21971 11.6058C1.26504 12.1046 1.46798 12.5742 1.79675 12.9459C0.559116 16.4542 0.414935 20.2639 1.38573 23.8598C2.36998 27.5054 4.45157 30.7506 7.34177 33.144C10.232 35.5375 13.7873 36.9601 17.5135 37.2138C21.2397 37.4675 24.9512 36.5395 28.1321 34.5592L28.3443 34.4271L28.2123 34.2149L27.5651 33.1748Z" fill="#EC1E37" stroke="#EC1E37" stroke-width="0.5"/>
  <path d="M18.942 2.49582L18.9432 2.49582C21.2619 2.48509 23.5551 2.99848 25.6623 4.00035C27.7696 5.00224 29.6404 6.46857 31.1431 8.29723C32.6459 10.1259 33.7444 12.2727 34.3611 14.5873C34.9606 16.8376 35.0906 19.1932 34.7432 21.4981C34.3975 21.5342 34.0636 21.6516 33.7678 21.8419C33.4114 22.0712 33.1243 22.3972 32.9374 22.783C32.7505 23.1687 32.6707 23.5998 32.7062 24.0288C32.7417 24.4577 32.8913 24.8689 33.1393 25.2168C33.3873 25.5647 33.7244 25.836 34.114 25.9996C34.5036 26.1633 34.9299 26.2125 35.3454 26.1414C35.7609 26.0704 36.1483 25.8821 36.4652 25.5984C36.7819 25.3148 37.0158 24.9471 37.1419 24.5363C37.2885 24.0603 37.2837 23.5484 37.1281 23.0754C36.9893 22.6532 36.7365 22.2807 36.3997 22.0016C36.8222 19.422 36.7021 16.778 36.0467 14.2497C35.3787 11.6728 34.1709 9.27857 32.5083 7.23663C30.8457 5.19467 28.7688 3.55481 26.4242 2.43369C24.0797 1.31265 21.5252 0.73782 18.9415 0.750196C17.7343 0.749213 16.5301 0.873739 15.3471 1.12188L15.1041 1.17285L15.1534 1.41618L15.4015 2.64087L15.4515 2.88807L15.6983 2.83582C16.7657 2.60977 17.8525 2.49587 18.942 2.49582Z" fill="#324752" stroke="#324752" stroke-width="0.5"/>
</svg>
  