<?xml version="1.0" encoding="UTF-8" standalone="no"?>
<!-- Uploaded to: SVG Repo, www.svgrepo.com, Generator: SVG Repo Mixer Tools -->
<svg width="800px" height="800px" viewBox="0 0 64 64" version="1.1" xmlns="http://www.w3.org/2000/svg" xmlns:xlink="http://www.w3.org/1999/xlink">
    
    <title>clo-cloud-network-folder</title>
    <desc>Created with Sketch.</desc>
    <defs>

</defs>
    <g id="64px-Glyph" stroke="none" stroke-width="1" fill="none" fill-rule="evenodd">
        <g id="clo-cloud-network-folder" fill="#000000">
            <path d="M12,13 C12,12.447 12.447,12 13,12 L51.444,12 C50.75,10.81 49.474,10 48,10 L30,10 C28,10 27.497,9.329 26.8,8.4 C25.998,7.331 25,6 22,6 L12,6 C9.794,6 8,7.794 8,10 L8,38 C8,40.206 9.794,42 12,42 L12,13 Z" id="Fill-216">

</path>
            <path d="M38.8887,36 L27.8887,36 C24.6417,36 21.9997,33.458 21.9997,30.333 C21.9997,27.51 24.1567,25.163 26.9677,24.736 C27.4307,22.053 29.8597,20 32.7777,20 C34.7387,20 36.5317,20.919 37.6217,22.441 C38.0377,22.369 38.4617,22.333 38.8887,22.333 C42.8097,22.333 45.9997,25.398 45.9997,29.167 C45.9997,32.935 42.8097,36 38.8887,36 M54.9997,14 L51.9997,14 L13.9997,14 L13.9997,42 L51.9997,42 C54.2057,42 55.9997,40.206 55.9997,38 L55.9997,15 C55.9997,14.447 55.5527,14 54.9997,14" id="Fill-217">

</path>
            <path d="M38.8887,24.333 C38.3887,24.333 37.8947,24.401 37.4197,24.535 C36.9657,24.661 36.4837,24.457 36.2637,24.039 C35.6017,22.781 34.2657,22 32.7777,22 C30.6327,22 28.8887,23.645 28.8887,25.667 C28.8887,26.22 28.4417,26.667 27.8887,26.667 C25.7437,26.667 23.9997,28.312 23.9997,30.333 C23.9997,32.356 25.7437,34 27.8887,34 L38.8887,34 C41.7067,34 43.9997,31.832 43.9997,29.167 C43.9997,26.502 41.7067,24.333 38.8887,24.333" id="Fill-218">

</path>
            <path d="M24,50 L5,50 C4.447,50 4,50.447 4,51 L4,55 C4,55.553 4.447,56 5,56 L24,56 L24,50 Z" id="Fill-219">

</path>
            <polygon id="Fill-220" points="30 46 36 46 36 44 30 44">

</polygon>
            <path d="M39,48 L27,48 C26.447,48 26,48.447 26,49 L26,57 C26,57.553 26.447,58 27,58 L39,58 C39.553,58 40,57.553 40,57 L40,49 C40,48.447 39.553,48 39,48" id="Fill-221">

</path>
            <path d="M61,50 L42,50 L42,56 L61,56 C61.553,56 62,55.553 62,55 L62,51 C62,50.447 61.553,50 61,50" id="Fill-222">

</path>
        </g>
    </g>
</svg>