<?xml version="1.0" ?><!-- Uploaded to: SVG Repo, www.svgrepo.com, Generator: SVG Repo Mixer Tools -->
<svg width="800px" height="800px" viewBox="0 0 2050 2050" data-name="Layer 3" id="Layer_3" xmlns="http://www.w3.org/2000/svg"><defs><style>.cls-1{fill:#4d4d4d;}.cls-2{fill:#ffffff;}</style></defs><title/><path class="cls-1" d="M1380.4,1601.1H669.6c-113.4,0-205.7-92.3-205.7-205.7V654.6c0-113.4,92.3-205.7,205.7-205.7h710.8c113.4,0,205.7,92.3,205.7,205.7v740.8C1586.1,1508.8,1493.8,1601.1,1380.4,1601.1Z"/><path class="cls-2" d="M860.5,1017.6h-68c-57.3,0-103.9-46.7-103.9-104V802.8a104,104,0,0,1,103.9-104h68a104.1,104.1,0,0,1,104,104V913.6A104.2,104.2,0,0,1,860.5,1017.6Zm-68-228.8a14,14,0,0,0-13.9,14V913.6a14,14,0,0,0,13.9,14h68a14,14,0,0,0,14-14V802.8a14,14,0,0,0-14-14Z"/><path class="cls-2" d="M826.5,1419.1a45.1,45.1,0,0,1-45-45V983.9a45,45,0,0,1,90,0v390.2A45,45,0,0,1,826.5,1419.1Z"/><path class="cls-2" d="M826.5,776.3a45.1,45.1,0,0,1-45-45V645.8a45,45,0,0,1,90,0v85.5A45,45,0,0,1,826.5,776.3Z"/><path class="cls-2" d="M1266.7,1321h-68a104,104,0,0,1-103.9-103.9V1106.2a104,104,0,0,1,103.9-103.9h68a104,104,0,0,1,103.9,103.9v110.9A104,104,0,0,1,1266.7,1321Zm-68-228.7a13.9,13.9,0,0,0-13.9,13.9v110.9a13.9,13.9,0,0,0,13.9,13.9h68a13.9,13.9,0,0,0,13.9-13.9V1106.2a13.9,13.9,0,0,0-13.9-13.9Z"/><path class="cls-2" d="M1232.7,1080.9a44.9,44.9,0,0,1-45-45V645.8a45,45,0,0,1,90,0v390.1A44.9,44.9,0,0,1,1232.7,1080.9Z"/><path class="cls-2" d="M1232.7,1419.1a45,45,0,0,1-45-45v-85.6a45,45,0,0,1,90,0v85.6A45,45,0,0,1,1232.7,1419.1Z"/></svg>